# xmcd
#
# Track frame offsets: 
#        150
#        17765
#        37422
#
# Disc length: 684 seconds
#
# Revision: 0
# Processed by: cddbd v1.5.2PL0 Copyright (c) Steve Scherf et al.
# Submitted via: ExactAudioCopy v0.99pb4
#
DISCID=2202aa03
DTITLE=Velocette - Bitterscene
DYEAR=1999
DGENRE=Indie
TTITLE0=Bitterscene
TTITLE1=Bossanova
TTITLE2=Catch The Sun
EXTD=
EXTT0=
EXTT1=
EXTT2=
PLAYORDER=
